<svg width="111" height="43" viewBox="0 0 111 43" fill="none" xmlns="http://www.w3.org/2000/svg">
<path d="M28.0549 28.0845V30.7931H29.0946V39.6971H28.0549V42.427H34.2985V39.6971H32.5857V37.0922H35.7759V34.3646H32.5857V30.7931H35.1221V32.6201H38.0924V28.0845H28.0549Z" fill="white"/>
<path d="M51.9074 42.427V39.7396H50.7328L47.7625 28.0845H41.3145V30.7319H42.0031L39.7367 39.7396H38.5968V42.427H43.9338V39.7396H42.6241L42.9771 38.344H46.4181L46.7711 39.7396H45.1759V42.427H51.9074ZM43.5982 35.8828L44.6899 31.4509L45.797 35.8828H43.5982Z" fill="white"/>
<path d="M64.9074 42.427V39.7396H63.7328L60.7625 28.0845H54.3145V30.7319H55.0031L52.7367 39.7396H51.5968V42.427H56.9338V39.7396H55.6241L55.9771 38.344H59.4181L59.7711 39.7396H58.1759V42.427H64.9074ZM56.5982 35.8828L57.6899 31.4509L58.797 35.8828H56.5982Z" fill="white"/>
<path d="M63.5798 42.4271H66.5173L66.7006 40.8476C67.339 41.7694 68.5136 42.7359 70.209 42.7359C72.2073 42.7359 74.6588 41.5855 74.6588 38.3841C74.6588 33.5632 68.0102 34.0559 68.0102 31.9437C68.0102 31.2246 68.6814 30.8545 69.1694 30.8545C70.3441 30.8545 71.3181 31.7173 71.3181 33.2355H74.356V28.0846H71.4686L71.3007 29.8078C70.6295 28.2708 69.2022 27.7168 67.7923 27.7168C66.147 27.7168 63.7977 29.0912 63.7977 32.1275C63.7977 37.3586 70.2438 36.6821 70.2438 38.2828C70.2438 39.1432 69.4047 39.3082 68.8165 39.3082C68.1105 39.2682 66.7006 38.9806 66.7006 37.2573H63.5798V42.4271Z" fill="white"/>
<path d="M75.4629 28.0845V30.7719H76.4022V39.7183H75.4629V42.427H80.8674V39.7183H79.8432V36.5382H81.12C83.5195 36.5382 85.5351 35.185 85.5351 32.4763C85.5351 30.1378 84.7963 28.0845 80.9002 28.0845H75.4629ZM79.8432 30.7531H80.6822C81.6562 30.7531 82.2445 31.4084 82.2445 32.6201C82.2445 33.7069 81.5733 34.3222 80.5993 34.3222H79.8432V30.7531Z" fill="white"/>
<path d="M99.349 42.427V39.7396H98.1743L95.204 28.0845H88.756V30.7319H89.4446L87.1782 39.7396H86.0383V42.427H91.3753V39.7396H90.0657L90.4186 38.344H93.8596L94.2126 39.7396H92.6175V42.427H99.349ZM91.0397 35.8828L92.1314 31.4509L93.2385 35.8828H91.0397Z" fill="white"/>
<path d="M105.796 34.5485C105.729 34.1996 105.376 33.2755 105.275 32.8865L104.301 30.7106H105.175V28.0845H99.433V30.7106H100.255L103.512 37.3397V39.7608H102.556V42.427H107.927V39.7608H106.986V37.3798L110.093 30.7106H111V28.0845H106.483V30.7106H107.407L106.483 32.7828C106.3 33.2755 105.929 34.1383 105.862 34.5485H105.796Z" fill="white"/>
<path d="M23.624 3.27858L19.7636 20.8874C20.474 20.8126 21.2 20.714 21.939 20.59C31.9667 18.9155 40.5774 13.3162 41.1695 8.08748C41.7602 2.85875 34.107 -0.0227741 24.0794 1.65175C14.0517 3.32787 5.43966 8.92713 4.84896 14.1543C4.5497 16.7988 6.36085 18.8423 9.51994 20L8.08352 26.5534C2.75677 25.1015 -0.440056 21.8701 0.0491618 17.5415C0.866259 10.3059 11.6785 2.74107 24.1926 0.6499C36.7066 -1.43968 46.1917 2.73312 45.3733 9.97033C44.5562 17.2059 33.744 24.7707 21.2299 26.8603C20.258 27.0241 19.3043 27.1482 18.3714 27.2372L17.2004 32.5773C15.7536 39.1768 11.8997 41.656 6.81754 42.5179L13.2411 13.2192C14.688 6.61968 18.5418 4.14049 23.624 3.27858Z" fill="white"/>
</svg>
