<svg xmlns="http://www.w3.org/2000/svg" xmlns:xlink="http://www.w3.org/1999/xlink" width="300" zoomAndPan="magnify" viewBox="0 0 224.87999 225" height="300" preserveAspectRatio="xMidYMid meet" version="1.0"><defs><g/><clipPath id="2a8824226a"><path d="M 78 66 L 161 66 L 161 128.390625 L 78 128.390625 Z M 78 66 " clip-rule="nonzero"/></clipPath></defs><g clip-path="url(#2a8824226a)"><path fill="#8d85bd" d="M 120.992188 70.875 L 114.042969 96.8125 C 115.324219 96.703125 116.628906 96.558594 117.960938 96.375 C 136.011719 93.90625 151.515625 85.660156 152.578125 77.957031 C 153.644531 70.257812 139.863281 66.011719 121.8125 68.480469 C 103.761719 70.949219 88.257812 79.195312 87.195312 86.894531 C 86.65625 90.792969 89.914062 93.800781 95.601562 95.507812 L 93.015625 105.160156 C 83.429688 103.019531 77.671875 98.261719 78.550781 91.882812 C 80.023438 81.226562 99.488281 70.082031 122.015625 67.003906 C 144.542969 63.925781 161.621094 70.074219 160.148438 80.730469 C 158.675781 91.390625 139.214844 102.53125 116.683594 105.609375 C 114.933594 105.851562 113.214844 106.035156 111.539062 106.164062 L 109.429688 114.03125 C 106.824219 123.75 99.886719 127.402344 90.738281 128.671875 L 102.300781 85.519531 C 104.90625 75.796875 111.84375 72.144531 120.992188 70.875 Z M 120.992188 70.875 " fill-opacity="1" fill-rule="nonzero"/></g><g fill="#8d85bd" fill-opacity="1"><g transform="translate(77.596532, 162.664493)"><g><path d="M 4.28125 -3.421875 C 4.644531 -3.359375 4.953125 -3.171875 5.203125 -2.859375 C 5.453125 -2.546875 5.578125 -2.191406 5.578125 -1.796875 C 5.578125 -1.453125 5.488281 -1.144531 5.3125 -0.875 C 5.132812 -0.601562 4.878906 -0.390625 4.546875 -0.234375 C 4.210938 -0.078125 3.828125 0 3.390625 0 L 0.71875 0 L 0.71875 -6.671875 L 3.265625 -6.671875 C 3.710938 -6.671875 4.097656 -6.59375 4.421875 -6.4375 C 4.753906 -6.28125 5.003906 -6.070312 5.171875 -5.8125 C 5.335938 -5.5625 5.421875 -5.273438 5.421875 -4.953125 C 5.421875 -4.566406 5.316406 -4.242188 5.109375 -3.984375 C 4.910156 -3.734375 4.632812 -3.546875 4.28125 -3.421875 Z M 1.8125 -3.859375 L 3.171875 -3.859375 C 3.523438 -3.859375 3.800781 -3.941406 4 -4.109375 C 4.207031 -4.273438 4.3125 -4.507812 4.3125 -4.8125 C 4.3125 -5.113281 4.207031 -5.347656 4 -5.515625 C 3.800781 -5.691406 3.523438 -5.78125 3.171875 -5.78125 L 1.8125 -5.78125 Z M 3.296875 -0.890625 C 3.660156 -0.890625 3.945312 -0.976562 4.15625 -1.15625 C 4.375 -1.332031 4.484375 -1.582031 4.484375 -1.90625 C 4.484375 -2.226562 4.367188 -2.484375 4.140625 -2.671875 C 3.921875 -2.867188 3.625 -2.96875 3.25 -2.96875 L 1.8125 -2.96875 L 1.8125 -0.890625 Z M 3.296875 -0.890625 "/></g></g></g><g fill="#8d85bd" fill-opacity="1"><g transform="translate(85.558843, 162.664493)"><g><path d="M 5.65625 -6.671875 L 3.453125 -2.421875 L 3.453125 0 L 2.359375 0 L 2.359375 -2.421875 L 0.140625 -6.671875 L 1.359375 -6.671875 L 2.90625 -3.390625 L 4.453125 -6.671875 Z M 5.65625 -6.671875 "/></g></g></g><g fill="#8d85bd" fill-opacity="1"><g transform="translate(93.281341, 162.664493)"><g/></g></g><g fill="#8d85bd" fill-opacity="1"><g transform="translate(97.694402, 162.664493)"><g><path d="M 9.40625 -6.671875 L 7.421875 0 L 6.1875 0 L 4.78125 -5.046875 L 3.296875 0 L 2.078125 0.015625 L 0.1875 -6.671875 L 1.34375 -6.671875 L 2.71875 -1.234375 L 4.21875 -6.671875 L 5.453125 -6.671875 L 6.84375 -1.265625 L 8.234375 -6.671875 Z M 9.40625 -6.671875 "/></g></g></g><g fill="#8d85bd" fill-opacity="1"><g transform="translate(109.196377, 162.664493)"><g><path d="M 4.734375 -1.359375 L 1.953125 -1.359375 L 1.46875 0 L 0.328125 0 L 2.71875 -6.671875 L 3.984375 -6.671875 L 6.375 0 L 5.21875 0 Z M 4.4375 -2.25 L 3.34375 -5.359375 L 2.25 -2.25 Z M 4.4375 -2.25 "/></g></g></g><g fill="#8d85bd" fill-opacity="1"><g transform="translate(117.801396, 162.664493)"><g><path d="M 1.8125 -0.875 L 4.0625 -0.875 L 4.0625 0 L 0.71875 0 L 0.71875 -6.671875 L 1.8125 -6.671875 Z M 1.8125 -0.875 "/></g></g></g><g fill="#8d85bd" fill-opacity="1"><g transform="translate(123.979492, 162.664493)"><g><path d="M 1.8125 -0.875 L 4.0625 -0.875 L 4.0625 0 L 0.71875 0 L 0.71875 -6.671875 L 1.8125 -6.671875 Z M 1.8125 -0.875 "/></g></g></g><g fill="#8d85bd" fill-opacity="1"><g transform="translate(130.157587, 162.664493)"><g><path d="M 3.78125 -3.328125 L 5.859375 0 L 4.625 0 L 3.125 -2.421875 L 1.703125 0 L 0.484375 0 L 2.5625 -3.328125 L 0.484375 -6.671875 L 1.703125 -6.671875 L 3.21875 -4.234375 L 4.640625 -6.671875 L 5.859375 -6.671875 Z M 3.78125 -3.328125 "/></g></g></g><g fill="#473893" fill-opacity="1"><g transform="translate(53.256344, 151.060686)"><g><path d="M 0.53125 -14.671875 L 13.078125 -14.671875 L 13.078125 -10.03125 L 9.359375 -10.03125 L 9.359375 -11.890625 L 6.1875 -11.890625 L 6.1875 -8.25 L 10.171875 -8.25 L 10.171875 -5.453125 L 6.1875 -5.453125 L 6.1875 -2.796875 L 8.328125 -2.796875 L 8.328125 0 L 0.53125 0 L 0.53125 -2.796875 L 1.828125 -2.796875 L 1.828125 -11.890625 L 0.53125 -11.890625 Z M 0.53125 -14.671875 "/></g></g></g><g fill="#473893" fill-opacity="1"><g transform="translate(66.644178, 151.060686)"><g><path d="M 16.953125 0 L 8.546875 0 L 8.546875 -2.75 L 10.53125 -2.75 L 10.09375 -4.171875 L 5.796875 -4.171875 L 5.34375 -2.75 L 6.984375 -2.75 L 6.984375 0 L 0.3125 0 L 0.3125 -2.75 L 1.734375 -2.75 L 4.578125 -11.96875 L 3.71875 -11.96875 L 3.71875 -14.671875 L 11.765625 -14.671875 L 15.484375 -2.75 L 16.953125 -2.75 Z M 6.5625 -6.6875 L 9.3125 -6.6875 L 7.9375 -11.234375 Z M 6.5625 -6.6875 "/></g></g></g><g fill="#473893" fill-opacity="1"><g transform="translate(83.914059, 151.060686)"><g><path d="M 16.953125 0 L 8.546875 0 L 8.546875 -2.75 L 10.53125 -2.75 L 10.09375 -4.171875 L 5.796875 -4.171875 L 5.34375 -2.75 L 6.984375 -2.75 L 6.984375 0 L 0.3125 0 L 0.3125 -2.75 L 1.734375 -2.75 L 4.578125 -11.96875 L 3.71875 -11.96875 L 3.71875 -14.671875 L 11.765625 -14.671875 L 15.484375 -2.75 L 16.953125 -2.75 Z M 6.5625 -6.6875 L 9.3125 -6.6875 L 7.9375 -11.234375 Z M 6.5625 -6.6875 "/></g></g></g><g fill="#473893" fill-opacity="1"><g transform="translate(101.183941, 151.060686)"><g><path d="M 0.53125 0 L 0.53125 -5.28125 L 4.421875 -5.28125 C 4.421875 -4.851562 4.515625 -4.5 4.703125 -4.21875 C 4.898438 -3.945312 5.140625 -3.738281 5.421875 -3.59375 C 5.710938 -3.445312 6.003906 -3.34375 6.296875 -3.28125 C 6.585938 -3.226562 6.847656 -3.195312 7.078125 -3.1875 C 7.328125 -3.1875 7.585938 -3.210938 7.859375 -3.265625 C 8.128906 -3.316406 8.363281 -3.414062 8.5625 -3.5625 C 8.757812 -3.71875 8.859375 -3.941406 8.859375 -4.234375 C 8.859375 -4.472656 8.707031 -4.671875 8.40625 -4.828125 C 8.113281 -4.984375 7.726562 -5.128906 7.25 -5.265625 C 6.78125 -5.410156 6.257812 -5.5625 5.6875 -5.71875 C 5.113281 -5.875 4.539062 -6.070312 3.96875 -6.3125 C 3.394531 -6.550781 2.867188 -6.851562 2.390625 -7.21875 C 1.910156 -7.59375 1.523438 -8.046875 1.234375 -8.578125 C 0.941406 -9.109375 0.796875 -9.757812 0.796875 -10.53125 C 0.796875 -11.3125 0.957031 -11.984375 1.28125 -12.546875 C 1.601562 -13.117188 2.019531 -13.585938 2.53125 -13.953125 C 3.039062 -14.316406 3.582031 -14.585938 4.15625 -14.765625 C 4.726562 -14.953125 5.273438 -15.046875 5.796875 -15.046875 C 6.671875 -15.046875 7.515625 -14.882812 8.328125 -14.5625 C 9.140625 -14.238281 9.753906 -13.6875 10.171875 -12.90625 L 10.390625 -14.671875 L 14 -14.671875 L 14 -9.40625 L 10.203125 -9.40625 C 10.203125 -10.1875 9.9375 -10.785156 9.40625 -11.203125 C 8.882812 -11.617188 8.253906 -11.828125 7.515625 -11.828125 C 7.203125 -11.828125 6.878906 -11.734375 6.546875 -11.546875 C 6.222656 -11.359375 6.0625 -11.082031 6.0625 -10.71875 C 6.0625 -10.414062 6.210938 -10.15625 6.515625 -9.9375 C 6.816406 -9.71875 7.210938 -9.515625 7.703125 -9.328125 C 8.203125 -9.148438 8.742188 -8.96875 9.328125 -8.78125 C 9.921875 -8.59375 10.507812 -8.375 11.09375 -8.125 C 11.6875 -7.875 12.226562 -7.570312 12.71875 -7.21875 C 13.21875 -6.863281 13.617188 -6.4375 13.921875 -5.9375 C 14.222656 -5.4375 14.375 -4.835938 14.375 -4.140625 C 14.375 -3.328125 14.203125 -2.632812 13.859375 -2.0625 C 13.523438 -1.488281 13.082031 -1.03125 12.53125 -0.6875 C 11.976562 -0.34375 11.375 -0.09375 10.71875 0.0625 C 10.070312 0.226562 9.4375 0.3125 8.8125 0.3125 C 7.75 0.3125 6.851562 0.109375 6.125 -0.296875 C 5.394531 -0.703125 4.828125 -1.140625 4.421875 -1.609375 L 4.203125 0 Z M 0.53125 0 "/></g></g></g><g fill="#8d85bd" fill-opacity="1"><g transform="translate(116.08922, 151.060686)"><g><path d="M 0.53125 -14.671875 L 7.328125 -14.671875 C 8.546875 -14.671875 9.535156 -14.550781 10.296875 -14.3125 C 11.054688 -14.070312 11.640625 -13.742188 12.046875 -13.328125 C 12.453125 -12.910156 12.726562 -12.429688 12.875 -11.890625 C 13.03125 -11.347656 13.109375 -10.773438 13.109375 -10.171875 C 13.109375 -9.253906 12.859375 -8.488281 12.359375 -7.875 C 11.859375 -7.257812 11.191406 -6.796875 10.359375 -6.484375 C 9.523438 -6.171875 8.601562 -6.015625 7.59375 -6.015625 L 6 -6.015625 L 6 -2.765625 L 7.28125 -2.765625 L 7.28125 0 L 0.53125 0 L 0.53125 -2.765625 L 1.703125 -2.765625 L 1.703125 -11.921875 L 0.53125 -11.921875 Z M 6 -11.9375 L 6 -8.28125 L 6.953125 -8.28125 C 7.566406 -8.28125 8.0625 -8.429688 8.4375 -8.734375 C 8.8125 -9.035156 9 -9.46875 9 -10.03125 C 9 -10.644531 8.828125 -11.113281 8.484375 -11.4375 C 8.140625 -11.769531 7.660156 -11.9375 7.046875 -11.9375 Z M 6 -11.9375 "/></g></g></g><g fill="#8d85bd" fill-opacity="1"><g transform="translate(129.519019, 151.060686)"><g><path d="M 16.953125 0 L 8.546875 0 L 8.546875 -2.75 L 10.53125 -2.75 L 10.09375 -4.171875 L 5.796875 -4.171875 L 5.34375 -2.75 L 6.984375 -2.75 L 6.984375 0 L 0.3125 0 L 0.3125 -2.75 L 1.734375 -2.75 L 4.578125 -11.96875 L 3.71875 -11.96875 L 3.71875 -14.671875 L 11.765625 -14.671875 L 15.484375 -2.75 L 16.953125 -2.75 Z M 6.5625 -6.6875 L 9.3125 -6.6875 L 7.9375 -11.234375 Z M 6.5625 -6.6875 "/></g></g></g><g fill="#8d85bd" fill-opacity="1"><g transform="translate(146.788901, 151.060686)"><g><path d="M 7.75 -8.0625 L 7.828125 -8.0625 C 7.867188 -8.269531 7.976562 -8.554688 8.15625 -8.921875 C 8.34375 -9.296875 8.492188 -9.609375 8.609375 -9.859375 L 9.75 -11.984375 L 8.609375 -11.984375 L 8.609375 -14.671875 L 14.25 -14.671875 L 14.25 -11.984375 L 13.109375 -11.984375 L 9.234375 -5.15625 L 9.234375 -2.734375 L 10.40625 -2.734375 L 10.40625 0 L 3.6875 0 L 3.6875 -2.734375 L 4.890625 -2.734375 L 4.890625 -5.203125 L 0.8125 -11.984375 L -0.203125 -11.984375 L -0.203125 -14.671875 L 6.96875 -14.671875 L 6.96875 -11.984375 L 5.875 -11.984375 L 7.09375 -9.75 C 7.132812 -9.625 7.195312 -9.445312 7.28125 -9.21875 C 7.375 -9 7.46875 -8.78125 7.5625 -8.5625 C 7.65625 -8.351562 7.71875 -8.1875 7.75 -8.0625 Z M 7.75 -8.0625 "/></g></g></g><g fill="#2f2f89" fill-opacity="1"><g transform="translate(159.192934, 137.717807)"><g><path d="M 2.1875 0 L 1.28125 0 L 1.28125 -3.53125 L 0.125 -3.53125 L 0.125 -4.28125 L 3.359375 -4.28125 L 3.359375 -3.53125 L 2.1875 -3.53125 Z M 2.1875 0 "/></g></g></g><g fill="#2f2f89" fill-opacity="1"><g transform="translate(164.462745, 137.717807)"><g><path d="M 2.359375 0 L 1.3125 -3.359375 L 1.296875 -3.359375 C 1.296875 -3.273438 1.300781 -3.15625 1.3125 -3 C 1.320312 -2.84375 1.328125 -2.671875 1.328125 -2.484375 C 1.335938 -2.296875 1.34375 -2.128906 1.34375 -1.984375 L 1.34375 0 L 0.546875 0 L 0.546875 -4.28125 L 1.78125 -4.28125 L 2.796875 -1.015625 L 2.8125 -1.015625 L 3.875 -4.28125 L 5.125 -4.28125 L 5.125 0 L 4.265625 0 L 4.265625 -2.03125 C 4.265625 -2.164062 4.269531 -2.320312 4.28125 -2.5 C 4.289062 -2.675781 4.296875 -2.84375 4.296875 -3 C 4.304688 -3.15625 4.3125 -3.273438 4.3125 -3.359375 L 4.296875 -3.359375 L 3.1875 0 Z M 2.359375 0 "/></g></g></g></svg>