<svg width="93" height="81" viewBox="0 0 93 81" fill="none" xmlns="http://www.w3.org/2000/svg">
<mask id="mask0_43_205" style="mask-type:luminance" maskUnits="userSpaceOnUse" x="17" y="0" width="69" height="52">
<path d="M17.1662 0H85.551V51.7822H17.1662V0Z" fill="white"/>
</mask>
<g mask="url(#mask0_43_205)">
<path d="M52.7291 4.00892L46.9858 25.443C48.0427 25.3521 49.1228 25.232 50.2223 25.0811C65.1408 23.0428 77.9514 16.2271 78.8321 9.86251C79.7109 3.49789 68.3251 -0.00961703 53.4066 2.02869C38.4881 4.06892 25.6756 10.8846 24.7968 17.2472C24.3516 20.4663 27.0461 22.9537 31.746 24.3629L29.6089 32.34C21.6841 30.5727 16.9281 26.6393 17.6559 21.3703C18.8716 12.5628 34.9573 3.35465 53.575 0.809188C72.1926 -1.73434 86.304 3.34497 85.0864 12.1544C83.8708 20.9619 67.785 30.17 49.1674 32.7136C47.7214 32.9129 46.3025 33.0639 44.9146 33.1723L43.1725 39.6724C41.02 47.7056 35.2864 50.7234 27.7255 51.7726L37.2821 16.109C39.4346 8.07584 45.1682 5.05807 52.7291 4.00892Z" fill="#8D85BD"/>
</g>
<path d="M27.0393 78.7813C27.2406 78.8181 27.411 78.9265 27.5503 79.1065C27.6936 79.2826 27.7671 79.482 27.7671 79.7027C27.7671 79.9001 27.7149 80.0743 27.6123 80.2292C27.5136 80.384 27.3684 80.506 27.1787 80.5931C26.9929 80.6821 26.7761 80.7247 26.5283 80.7247H25.0107V76.9385H26.4509C26.7083 76.9385 26.9309 76.983 27.1167 77.0701C27.3026 77.1591 27.4419 77.2772 27.5349 77.4263C27.6316 77.5715 27.682 77.7341 27.682 77.9141C27.682 78.1309 27.622 78.3128 27.5039 78.4561C27.3897 78.6013 27.2348 78.7097 27.0393 78.7813ZM25.6301 78.5258H26.3967C26.6019 78.5258 26.7625 78.4793 26.8767 78.3864C26.989 78.2935 27.0471 78.1618 27.0471 77.9915C27.0471 77.8212 26.989 77.6876 26.8767 77.5889C26.7625 77.4921 26.6019 77.4418 26.3967 77.4418H25.6301V78.5258ZM26.4664 80.2214C26.6773 80.2214 26.8419 80.1711 26.9619 80.0666C27.0858 79.964 27.1477 79.8227 27.1477 79.6407C27.1477 79.4549 27.0819 79.3078 26.9541 79.1994C26.8245 79.091 26.6561 79.0368 26.4509 79.0368H25.6301V80.2214H26.4664Z" fill="#8D85BD"/>
<path d="M32.3355 76.9385L31.0812 79.3542V80.7247H30.4617V79.3542L29.2074 76.9385H29.8965L30.7715 78.7968L31.6541 76.9385H32.3355Z" fill="#8D85BD"/>
<path d="M41.357 76.9385L40.2343 80.7247H39.5297L38.7321 77.8599L37.8882 80.7247L37.1913 80.7325L36.1151 76.9385H36.781L37.563 80.0201L38.4147 76.9385H39.1115L39.9013 80.0046L40.6911 76.9385H41.357Z" fill="#8D85BD"/>
<path d="M45.2408 79.9504H43.6535L43.3825 80.7247H42.7321L44.0871 76.9307H44.8072L46.1622 80.7247H45.5118L45.2408 79.9504ZM45.0627 79.4471L44.451 77.6817L43.8239 79.4471H45.0627Z" fill="#8D85BD"/>
<path d="M48.4629 80.2214H49.7405V80.7247H47.8435V76.9385H48.4629V80.2214Z" fill="#8D85BD"/>
<path d="M51.9717 80.2214H53.2492V80.7247H51.3522V76.9385H51.9717V80.2214Z" fill="#8D85BD"/>
<path d="M56.5954 78.8355L57.7723 80.7247H57.0754L56.2237 79.3542L55.4185 80.7247H54.7294L55.9063 78.8355L54.7216 76.9385H55.4185L56.2857 78.3244L57.0909 76.9385H57.78L56.5954 78.8355Z" fill="#8D85BD"/>
<path d="M0 61.019V63.2432H1.04335V70.5544H0V72.7959H6.26589V70.5544H4.54698V68.4154H7.74865V66.1758H4.54698V63.2432H7.09244V64.7433H10.0734V61.019H0Z" fill="#473893"/>
<path d="M23.938 72.7959V70.5892H22.7591L19.7781 61.019H13.3071V63.1928H13.9981L11.7236 70.5892H10.5796V72.7959H15.9357V70.5892H14.6214L14.9756 69.4433H18.4289L18.7832 70.5892H17.1823V72.7959H23.938ZM15.5989 67.4224L16.6945 63.7832L17.8056 67.4224H15.5989Z" fill="#473893"/>
<path d="M36.938 72.7959V70.5892H35.7591L32.7781 61.019H26.3071V63.1928H26.9981L24.7236 70.5892H23.5796V72.7959H28.9357V70.5892H27.6214L27.9756 69.4433H31.4289L31.7832 70.5892H30.1823V72.7959H36.938ZM28.5989 67.4224L29.6945 63.7832L30.8056 67.4224H28.5989Z" fill="#473893"/>
<path d="M35.6127 72.7961H38.5608L38.7447 71.4992C39.3854 72.2561 40.5642 73.0497 42.2657 73.0497C44.2711 73.0497 46.7314 72.1051 46.7314 69.4764C46.7314 65.5178 40.059 65.9224 40.059 64.188C40.059 63.5976 40.7327 63.2937 41.2224 63.2937C42.4012 63.2937 43.3788 64.0022 43.3788 65.2488H46.4275V61.0193H43.5298L43.3614 62.4343C42.6877 61.1722 41.2553 60.7173 39.8403 60.7173C38.1891 60.7173 35.8314 61.8458 35.8314 64.339C35.8314 68.6343 42.3006 68.0788 42.3006 69.3931C42.3006 70.0997 41.4585 70.2352 40.8682 70.2352C40.1597 70.2023 38.7447 69.9661 38.7447 68.5511H35.6127V72.7961Z" fill="#473893"/>
<path d="M47.5778 61.019V63.2258H48.5205V70.5718H47.5778V72.7959H53.0017V70.5718H51.9738V67.9605H53.2553C55.6633 67.9605 57.6861 66.8494 57.6861 64.6253C57.6861 62.705 56.9447 61.019 53.0346 61.019H47.5778ZM51.9738 63.2103H52.8159C53.7934 63.2103 54.3838 63.7484 54.3838 64.7434C54.3838 65.6357 53.7102 66.1409 52.7326 66.1409H51.9738V63.2103Z" fill="#8D85BD"/>
<path d="M71.5495 72.7959V70.5892H70.3707L67.3897 61.019H60.9186V63.1928H61.6096L59.3352 70.5892H58.1912V72.7959H63.5473V70.5892H62.2329L62.5872 69.4433H66.0405L66.3947 70.5892H64.7939V72.7959H71.5495ZM63.2105 67.4224L64.3061 63.7832L65.4172 67.4224H63.2105Z" fill="#8D85BD"/>
<path d="M78.0198 66.3268C77.952 66.0403 77.5978 65.2815 77.4971 64.9621L76.5196 63.1754H77.3965V61.019H71.6338V63.1754H72.4585L75.7279 68.6186V70.6066H74.7678V72.7959H80.1587V70.6066H79.2141V68.6515L82.3325 63.1754H83.2423V61.019H78.7089V63.1754H79.6361L78.7089 64.8769C78.525 65.2815 78.1533 65.9899 78.0856 66.3268H78.0198Z" fill="#8D85BD"/>
<path d="M86.2296 62.4643H85.4785V59.553H84.5184V58.9258H87.1897V59.553H86.2296V62.4643Z" fill="#2F2F89"/>
<path d="M90.7159 62.4643L89.8641 59.6923H89.8409C89.8448 59.7543 89.8506 59.853 89.8564 59.9866C89.8603 60.1221 89.8661 60.2634 89.8719 60.4124C89.8816 60.5634 89.8874 60.6989 89.8874 60.8228V62.4643H89.2215V58.9258H90.2358L91.0798 61.628H91.0953L91.9779 58.9258H93V62.4643H92.3031V60.7918C92.3031 60.6795 92.3051 60.5498 92.3109 60.4047C92.3148 60.2614 92.3206 60.124 92.3264 59.9943C92.3302 59.8607 92.3341 59.7601 92.3341 59.6923H92.3186L91.405 62.4643H90.7159Z" fill="#2F2F89"/>
</svg>
